<?xml version="1.0" encoding="utf-8"?>
<!-- Generator: Adobe Illustrator 17.0.0, SVG Export Plug-In . SVG Version: 6.00 Build 0)  -->
<!DOCTYPE svg PUBLIC "-//W3C//DTD SVG 1.1//EN" "http://www.w3.org/Graphics/SVG/1.1/DTD/svg11.dtd">
<svg version="1.1" id="Capa_1" xmlns="http://www.w3.org/2000/svg" xmlns:xlink="http://www.w3.org/1999/xlink" x="0px" y="0px"
	 width="595.28px" height="297.64px" viewBox="0 123.305 595.28 297.64" enable-background="new 0 123.305 595.28 297.64"
	 xml:space="preserve">
<g>
	<path fill="#48BBEE" d="M6.009,361.231c0.394-1.93,0.806-3.854,1.237-5.771C6.815,357.377,6.402,359.301,6.009,361.231z"/>
	<path fill="#48BBEE" d="M4.723,367.928c0.193-1.074,0.383-2.147,0.588-3.216C5.106,365.781,4.916,366.855,4.723,367.928z"/>
	<path fill="#48BBEE" d="M7.789,353.066c0.307-1.312,0.623-2.622,0.947-3.927C8.412,350.445,8.095,351.754,7.789,353.066z"/>
	<path fill="#48BBEE" d="M9.224,347.21c1.208-4.729,2.524-9.415,3.956-14.052C11.749,337.796,10.43,342.48,9.224,347.21z"/>
	<path fill="#48BBEE" d="M0.014,418.89c0.005-0.687,0.016-1.373,0.025-2.059C0.03,417.517,0.019,418.203,0.014,418.89z"/>
	<path fill="#48BBEE" d="M13.394,332.458c0.506-1.624,1.024-3.244,1.557-4.856C14.419,329.214,13.9,330.833,13.394,332.458z"/>
	<path fill="#48BBEE" d="M0.149,411.778c0.021-0.686,0.038-1.372,0.063-2.057C0.188,410.406,0.17,411.092,0.149,411.778z"/>
	<path fill="#48BBEE" d="M0.528,403.022c0.019-0.331,0.048-0.661,0.068-0.991C0.575,402.361,0.547,402.69,0.528,403.022z"/>
	<path fill="#48BBEE" d="M2.681,380.822c0.106-0.784,0.228-1.565,0.339-2.347C2.907,379.257,2.786,380.036,2.681,380.822z"/>
	<path fill="#48BBEE" d="M233.466,463.781c-0.173-10.627,2.763-21.082,8.583-30.198l16.449-25.745
		c3.288-5.146,4.024-11.52,1.993-17.279l-16.064-45.572l-7.046-7.551c-4.221-4.524-10.192-7.044-16.382-6.924
		c-5.298,0.115-10.358,2.155-14.235,5.678l15.152,48.181c0.523,1.665,0.136,3.482-1.021,4.788l-29.236,33.005
		c-1.946,2.192-1.137,4.583-0.84,5.257c0.293,0.674,1.476,2.902,4.395,2.991l22.038-3.159c2.039-0.285,4.048,0.719,5.036,2.534
		c0.988,1.806,0.759,4.047-0.587,5.611l-23.499,27.388c-4.751,9.36-3.103,20.719,4.226,28.381l21.823,8.28
		c3.426,1.3,6.425,3.522,8.665,6.422l10.456,13.538l-8.908-46.086C233.851,470.151,233.517,466.959,233.466,463.781z"/>
	<path fill="#48BBEE" d="M15.04,327.339c7.936-23.938,18.833-46.546,32.26-67.383c0.002,0.024,0.003,0.048,0.005,0.072
		c13.52-20.989,29.606-40.179,47.834-57.116l-0.043-0.022c9.878-9.181,20.405-17.665,31.469-25.445
		c0.365-0.258,0.731-0.514,1.099-0.769c4.436-3.09,8.958-6.062,13.567-8.913c0.69-0.427,1.382-0.85,2.074-1.272
		c3.57-2.169,7.173-4.292,10.84-6.315l0.049,0.014c31.265-17.229,65.981-29.021,102.905-34.053c0.098,0.7,0.124,1.419-0.077,2.12
		l-28.817,96.061l19.739-4.779c4.136-1.007,7.528-3.62,9.566-7.356c2.033-3.734,2.375-8.004,0.977-12.012l-3.831-10.974
		c-0.533-1.513-0.308-3.164,0.616-4.478c0.909-1.303,2.393-2.093,3.987-2.119l26.95-0.438l0.019,0
		c10.995-0.179,21.423,4.865,28.11,13.594l23.284,28.009c3.586,4.315,2.885,10.743-1.549,14.181l-60.489,46.921
		c-6.378,4.947-11.096,11.723-13.524,19.421l-5.71,18.1l96.27-76.653c5.504-6.834,8.337-15.571,7.554-24.726l-1.192-14.07
		c-0.093-1.52,0.45-3.021,1.576-4.067c1.127-1.035,2.665-1.497,4.176-1.25l32.024,5.274c1.045,0.177,2.007,0.674,2.746,1.438
		l55.708,57.235l110.485,41.644c1.438,0.538,2.547,1.722,2.993,3.197c1.664,5.448,2.529,11.005,2.619,16.537
		c0.164,10.085-2.256,20.105-7.185,29.235c-7.577,14.048-20.153,24.252-35.421,28.735c-12.094,3.549-20.161,5.309-24.666,5.382
		l-41.405,0.673l-2.468,6.745c-5.687,15.538-15.405,29.35-28.101,39.954l-18.757,15.654l12.842,65.742
		c0.561,2.837,0.807,5.687,0.809,8.517c69.997-20.183,129.254-65.323,167.722-125.019c0.276,4.49,0.491,8.998,0.565,13.54
		c-2.671-164.36-138.078-295.435-302.438-292.764C162.846,125.457,53.718,210.561,15.04,327.339z"/>
	<path fill="#48BBEE" d="M1.01,396.316c0.066-0.806,0.139-1.61,0.211-2.415C1.149,394.706,1.075,395.51,1.01,396.316z"/>
	<path fill="#48BBEE" d="M1.656,389.464c0.086-0.815,0.167-1.63,0.26-2.443C1.824,387.834,1.742,388.65,1.656,389.464z"/>
	<path fill="#48BBEE" d="M184.756,333.923l-11.668-15.256c-0.482-0.63-1.128-1.021-1.716-1.501l-0.113-0.322
		c-3.473-2.68-8.43-2.821-12.081-0.023c-4.346,3.307-5.184,9.552-1.853,13.907l9.683,12.653l0.395,24.287
		c0.089,5.483,4.603,9.848,10.081,9.759s9.848-4.598,9.759-10.081l-0.086-5.27l-0.362-22.282
		C186.759,337.668,186.043,335.607,184.756,333.923z"/>
	<path fill="#48BBEE" d="M3.633,374.363c0.162-1.027,0.33-2.051,0.503-3.074C3.963,372.312,3.793,373.337,3.633,374.363z"/>
	<path fill="#48BBEE" d="M174.403,280.088c-0.033-2.025-0.686-4.058-1.998-5.801c-0.196-0.261-0.405-0.507-0.621-0.743
		c-1.515-1.636-3.499-2.623-5.583-2.993l-0.016-0.056c-2.611-0.455-5.396,0.121-7.677,1.848l-34.414,25.958
		c-4.366,3.298-5.247,9.514-1.945,13.889c3.298,4.374,9.523,5.252,13.899,1.945l34.414-25.958
		C173.089,286.194,174.453,283.148,174.403,280.088z"/>
	<path fill="#0E94D7" d="M426.955,527.588c0.005,4.866-0.781,9.664-2.309,14.212c-1.795,5.355-4.61,10.344-8.305,14.698
		c-0.219,0.259-0.436,0.518-0.661,0.772c-0.367,0.413-0.742,0.816-1.125,1.215c-0.343,0.359-0.692,0.711-1.047,1.059
		c-0.332,0.324-0.664,0.647-1.008,0.963c-0.463,0.426-0.941,0.836-1.425,1.244c-0.278,0.234-0.548,0.474-0.833,0.703
		c-0.788,0.633-1.596,1.246-2.435,1.829l0,0h-0.001l-10.63,7.39c-15.83,11.01-35.011,15.26-53.511,12.481
		c-0.249-0.037-0.498-0.068-0.746-0.107c-0.3-0.048-0.6-0.107-0.899-0.159c-0.517-0.09-1.034-0.175-1.55-0.276
		c-0.073-0.014-0.146-0.032-0.219-0.046c-4.783-0.948-9.502-2.368-14.088-4.275c-1.536-0.639-3.056-1.332-4.559-2.079
		c-0.017-0.008-0.036-0.017-0.054-0.025l0,0l0,0l-29.566-14.723l-10.221,0.389c-15.799,0.605-29.628-9.248-34.358-23.928
		l-3.529,13.536c-2.691,10.315-11.64,17.737-22.272,18.482l-13.245,0.932c-13.169,0.921-24.743-8.619-26.347-21.723l-1.617-13.191
		l-23.443,0.381c-1.555,0.025-3.035-0.678-3.989-1.912l-30.406-38.954c-2.074-2.66-4.618-4.828-7.572-6.447l-11.954-6.598
		l9.368,43.948c0.3,1.449-0.049,2.966-0.97,4.125c-0.926,1.169-2.32,1.85-3.802,1.874l-13.597,0.221
		c-13.563,0.22-26.322-5.629-35.015-16.059L7.908,456.237c-1.309-1.568-1.52-3.783-0.527-5.583l24.34-43.894
		c0.649-1.174,0.788-2.522,0.418-3.825c-0.384-1.282-1.25-2.344-2.437-2.964L2.391,383.808l0,0l-0.034-0.019
		c5.623-45.134,21.385-87.179,44.949-123.76c-0.002-0.025-0.003-0.048-0.005-0.072c-13.427,20.836-24.324,43.445-32.26,67.383
		c-0.03,0.089-0.059,0.176-0.088,0.263c-0.533,1.612-1.051,3.232-1.557,4.856c-0.073,0.233-0.142,0.467-0.214,0.701
		c-1.432,4.636-2.748,9.322-3.956,14.052c-0.164,0.643-0.328,1.284-0.488,1.928c-0.324,1.306-0.64,2.615-0.947,3.927
		c-0.186,0.797-0.364,1.596-0.543,2.394c-0.431,1.917-0.843,3.841-1.237,5.771c-0.237,1.159-0.476,2.316-0.699,3.481
		c-0.205,1.069-0.394,2.143-0.588,3.216c-0.201,1.118-0.399,2.238-0.588,3.361c-0.172,1.024-0.341,2.047-0.503,3.074
		c-0.215,1.367-0.416,2.738-0.613,4.11c-0.113,0.783-0.233,1.563-0.339,2.347c-0.278,2.06-0.53,4.128-0.765,6.2
		c-0.092,0.813-0.174,1.628-0.26,2.443c-0.156,1.476-0.3,2.956-0.434,4.439c-0.073,0.804-0.145,1.609-0.211,2.415
		c-0.156,1.9-0.294,3.804-0.414,5.714c-0.021,0.332-0.049,0.659-0.068,0.991c-0.133,2.226-0.233,4.46-0.315,6.699
		c-0.025,0.685-0.042,1.371-0.063,2.057c-0.051,1.68-0.088,3.365-0.11,5.052c-0.01,0.686-0.02,1.372-0.025,2.059
		c-0.015,2.291-0.012,4.587,0.025,6.891c2.671,164.36,138.078,295.435,302.438,292.764
		c164.36-2.671,295.435-138.078,292.764-302.438c-0.074-4.543-0.288-9.05-0.562-13.54
		C556.21,462.265,496.952,507.405,426.955,527.588z M111.647,581.267c-4.722-2.801-6.288-8.88-3.482-13.597l9.479-16.017
		c2.155-3.639,6.384-5.51,10.53-4.667l31.691,6.5c4.642,0.952,7.853,5.009,7.927,9.552c0.012,0.717-0.05,1.435-0.202,2.164
		c-1.1,5.367-6.344,8.824-11.711,7.729l-24.763-5.082l-5.875,9.931C122.453,582.496,116.364,584.059,111.647,581.267z"/>
	<path fill="#00E389" d="M171.784,273.544c0.216,0.236,0.425,0.482,0.621,0.743C172.209,274.026,172.001,273.778,171.784,273.544z"
		/>
	<path fill="#00E389" d="M258.499,407.838l5.21-8.154l-3.217-9.126C262.522,396.319,261.787,402.692,258.499,407.838z"/>
	<path fill="#00E389" d="M186.794,339.79l0-0.005c-0.034-2.122-0.749-4.176-2.038-5.862l-11.668-15.256l11.668,15.256
		C186.043,335.607,186.759,337.668,186.794,339.79z"/>
	<path fill="#00E389" d="M223.309,168.987l23.503-6.698l-18.608,62.03l28.817-96.061c0.201-0.702,0.175-1.421,0.077-2.12
		c-36.922,5.032-71.638,16.824-102.905,34.053l31.148,8.826C197.753,172.533,210.901,172.522,223.309,168.987z"/>
	<path fill="#00E389" d="M355.884,307.905l1.648,1.061c11.156,7.18,17.985,19.46,18.2,32.724l1.889,116.248
		c0.216,13.267,7.047,25.549,18.207,32.728l28.33,18.229l1.985,10.164c1.513,7.745,0.91,15.558-1.496,22.74
		c1.529-4.55,2.313-9.346,2.309-14.212c-0.003-2.829-0.249-5.679-0.809-8.517l-12.842-65.742l18.757-15.654
		c12.696-10.604,22.414-24.416,28.101-39.954l2.468-6.745l41.405-0.673c4.505-0.073,12.572-1.833,24.666-5.382
		c15.266-4.483,27.844-14.688,35.421-28.735c4.93-9.131,7.349-19.151,7.185-29.235c-0.09-5.532-0.956-11.089-2.619-16.537
		c-0.446-1.475-1.555-2.659-2.993-3.197l-110.485-41.644l-55.708-57.235c-0.739-0.763-1.701-1.261-2.746-1.438l-32.024-5.274
		c-1.511-0.247-3.049,0.215-4.176,1.25c-1.127,1.045-1.669,2.546-1.576,4.067l1.192,14.07c0.784,9.155-2.05,17.892-7.554,24.726
		l-5.665,42.886C345.947,296.237,349.425,303.748,355.884,307.905z"/>
	<path fill="#00E389" d="M141.231,167.762c0.69-0.427,1.382-0.85,2.074-1.272C142.612,166.912,141.921,167.335,141.231,167.762z"/>
	<path fill="#00E389" d="M126.565,177.446c0.365-0.258,0.731-0.514,1.099-0.769C127.297,176.931,126.93,177.188,126.565,177.446z"/>
	<path fill="#00E389" d="M2.391,383.808c0.022-0.173,0.028-0.348,0.05-0.521c2.056-16.271,5.43-32.138,10.009-47.494
		c0.333-1.113,0.745-2.189,1.09-3.297c1.959-6.295,4.088-12.518,6.447-18.629c0.788-2.039,1.672-4.03,2.504-6.048
		c2.105-5.112,4.306-10.174,6.682-15.139c1.096-2.289,2.256-4.539,3.408-6.795c2.354-4.609,4.811-9.155,7.394-13.622
		c1.317-2.278,2.657-4.539,4.033-6.779c1.063-1.73,2.23-3.389,3.328-5.096c7.587,121.228,87.482,222.301,196.534,261.429
		l-0.499-2.412l-10.456-13.538c-2.24-2.899-5.238-5.123-8.665-6.422l-21.823-8.28c-7.33-7.661-8.977-19.021-4.226-28.381
		l23.499-27.388c1.345-1.562,1.575-3.805,0.587-5.611c-0.988-1.816-2.997-2.82-5.036-2.534l-22.038,3.159
		c-2.919-0.088-4.102-2.317-4.395-2.991c-0.296-0.674-1.107-3.063,0.84-5.257l29.236-33.005c1.157-1.306,1.544-3.123,1.021-4.788
		l-15.152-48.181l8.354,26.562l-4.436,2.59c-7.656,4.469-17.377,3.119-23.525-3.269l0.086,5.27c0.089,5.483-4.28,9.992-9.759,10.081
		c-5.478,0.089-9.992-4.275-10.081-9.759l-0.395-24.287l-9.683-12.653c-3.332-4.355-2.493-10.599,1.853-13.907
		c3.651-2.797,8.608-2.657,12.081,0.023l-4.514-12.84l-0.209-12.865l3.925-2.96l-34.414,25.958c-4.374,3.307-10.6,2.43-13.899-1.945
		c-3.302-4.374-2.421-10.59,1.945-13.889l34.414-25.958c2.283-1.725,5.067-2.303,7.677-1.848l-5.755-19.629
		c-3.025-10.319-10.108-18.968-19.627-23.968L95.14,202.912c-18.227,16.937-34.313,36.127-47.834,57.116
		c-23.563,36.581-39.324,78.626-44.949,123.76L2.391,383.808z"/>
	<path fill="#00BBBB" d="M125.239,577.78l5.875-9.931l24.763,5.082c5.367,1.095,10.611-2.363,11.711-7.729
		c0.153-0.729,0.213-1.447,0.202-2.164c-0.074-4.543-3.284-8.6-7.927-9.552l-31.691-6.5c-4.146-0.843-8.375,1.028-10.53,4.667
		l-9.479,16.017c-2.806,4.717-1.24,10.796,3.482,13.597C116.364,584.059,122.453,582.496,125.239,577.78z"/>
	<path fill="#00BBBB" d="M243.872,521.818C134.82,482.691,54.924,381.617,47.338,260.389c-1.097,1.707-2.265,3.366-3.328,5.096
		c-1.376,2.24-2.716,4.501-4.033,6.779c-2.583,4.466-5.041,9.014-7.394,13.622c-1.153,2.256-2.312,4.507-3.408,6.795
		c-2.376,4.965-4.578,10.027-6.682,15.139c-0.832,2.018-1.716,4.007-2.504,6.048c-2.359,6.111-4.488,12.334-6.447,18.629
		c-0.345,1.107-0.758,2.184-1.09,3.297c-4.58,15.355-7.954,31.222-10.009,47.494c-0.022,0.173-0.028,0.348-0.05,0.521l0,0
		l27.312,16.162c1.187,0.621,2.053,1.682,2.437,2.964c0.37,1.303,0.232,2.652-0.418,3.825l-24.34,43.894
		c-0.993,1.8-0.783,4.015,0.527,5.583l51.107,61.301c8.692,10.43,21.452,16.279,35.015,16.059l13.597-0.221
		c1.482-0.024,2.876-0.705,3.802-1.874c0.921-1.159,1.27-2.676,0.97-4.125l-9.368-43.948l11.954,6.598
		c2.952,1.619,5.498,3.787,7.572,6.447l30.406,38.955c0.955,1.235,2.435,1.938,3.989,1.912l23.443-0.381l1.62,13.191
		c1.603,13.104,13.178,22.645,26.347,21.723l13.245-0.932c10.632-0.745,19.582-8.167,22.272-18.482l3.529-13.536L243.872,521.818z"
		/>
	<path fill="#00BBBB" d="M368.283,583.73c-8.106,1.504-16.427,1.654-24.615,0.425c18.5,2.779,37.681-1.471,53.511-12.481
		c-0.697,0.485-1.401,0.957-2.11,1.415C386.797,578.433,377.685,581.987,368.283,583.73z"/>
	<path fill="#00BBBB" d="M342.922,584.048c-0.3-0.048-0.6-0.108-0.899-0.159C342.323,583.941,342.622,584,342.922,584.048z"/>
	<path fill="#00BBBB" d="M340.473,583.613c-0.073-0.014-0.146-0.032-0.219-0.046C340.328,583.58,340.401,583.599,340.473,583.613z"
		/>
	<polygon fill="#FFEDB9" points="407.809,564.284 407.81,564.283 397.179,571.674 	"/>
	<path fill="#FFEDB9" d="M326.168,579.292c-1.536-0.639-3.056-1.332-4.559-2.079C323.112,577.96,324.632,578.653,326.168,579.292z"
		/>
	<polygon fill="#FFEDB9" points="321.554,577.187 321.555,577.188 291.99,562.463 	"/>
	<path fill="#FFEDB9" d="M160.429,250.866l5.755,19.629l0.017,0.056c2.085,0.369,4.068,1.357,5.583,2.993
		c0.217,0.235,0.425,0.482,0.621,0.743c1.312,1.742,1.965,3.776,1.998,5.801c0.05,3.062-1.316,6.106-3.943,8.088l-3.925,2.961
		l0.209,12.865l4.513,12.841l0.113,0.322c0.588,0.48,1.235,0.872,1.716,1.501l11.668,15.256c1.289,1.686,2.003,3.741,2.038,5.862
		l0,0.005l0.362,22.282c6.148,6.387,15.869,7.738,23.525,3.269l4.435-2.59l-8.352-26.56c3.877-3.522,8.935-5.562,14.235-5.678
		c6.19-0.12,12.161,2.4,16.382,6.924l7.046,7.551l16.064,45.572l3.217,9.126l-5.21,8.154l-16.449,25.745
		c-5.822,9.116-8.756,19.571-8.583,30.198c0.052,3.178,0.385,6.37,0.998,9.538l8.908,46.086l0.499,2.412l3.539,17.106l-3.555-17.184
		c32.865,11.797,68.342,18.041,105.321,17.44c26.956-0.438,52.98-4.525,77.7-11.648c0.02,10.63-3.724,20.904-10.532,28.967
		c3.695-4.354,6.51-9.344,8.305-14.698c2.406-7.182,3.01-14.995,1.496-22.74l-1.985-10.164l-28.33-18.229
		c-11.158-7.18-17.991-19.461-18.207-32.728l-1.889-116.248c-0.216-13.264-7.045-25.544-18.2-32.724l-1.648-1.061
		c-6.458-4.157-9.937-11.668-8.931-19.282l5.665-42.886l-96.269,76.652l5.708-18.099c2.427-7.698,7.146-14.473,13.524-19.421
		l60.489-46.921c4.433-3.44,5.136-9.867,1.549-14.181l-23.284-28.009c-6.687-8.729-17.115-13.772-28.11-13.594l-0.019,0
		l-26.95,0.438c-1.593,0.026-3.078,0.815-3.987,2.119c-0.924,1.314-1.149,2.964-0.616,4.478l3.831,10.974
		c1.397,4.008,1.055,8.278-0.977,12.012c-2.037,3.734-5.43,6.348-9.566,7.356l-19.739,4.779l18.608-62.03l-23.503,6.698
		c-12.408,3.536-25.554,3.546-37.967,0.029l-31.148-8.826l-0.049-0.014c-3.667,2.022-7.269,4.146-10.84,6.315
		c-0.693,0.422-1.385,0.845-2.074,1.272c-4.609,2.851-9.131,5.823-13.567,8.913c-0.367,0.255-0.732,0.512-1.099,0.769
		c-11.064,7.779-21.592,16.263-31.469,25.445l0.043,0.022l45.662,23.986C150.321,231.898,157.405,240.547,160.429,250.866z"/>
	<path fill="#FFEDB9" d="M414.557,558.486c0.382-0.399,0.758-0.804,1.125-1.215C415.316,557.684,414.938,558.086,414.557,558.486z"
		/>
	<path fill="#FFEDB9" d="M410.245,562.454c0.284-0.228,0.556-0.468,0.833-0.703C410.799,561.986,410.529,562.226,410.245,562.454z"
		/>
	<path fill="#FFEDB9" d="M412.503,560.507c0.343-0.314,0.676-0.639,1.008-0.963C413.179,559.869,412.845,560.192,412.503,560.507z"
		/>
	<path fill="#FFEDB9" d="M368.283,583.73c9.402-1.743,18.514-5.297,26.786-10.641C386.797,578.433,377.685,581.987,368.283,583.73z"
		/>
	<path fill="#FFD586" d="M426.875,527.531c-24.719,7.123-50.743,11.21-77.7,11.648c-36.979,0.601-72.456-5.643-105.32-17.439
		l3.555,17.184c4.73,14.681,18.558,24.534,34.358,23.928l10.221-0.389l29.566,14.723l0,0c0.018,0.008,0.036,0.017,0.054,0.025
		c1.503,0.747,3.023,1.44,4.559,2.079c4.584,1.906,9.304,3.327,14.088,4.275c0.073,0.015,0.146,0.032,0.219,0.046
		c0.515,0.101,1.032,0.187,1.55,0.276c0.3,0.052,0.598,0.112,0.899,0.159c0.249,0.039,0.497,0.07,0.746,0.107
		c8.188,1.229,16.509,1.077,24.615-0.425c9.402-1.743,18.514-5.297,26.786-10.641c0.709-0.458,1.414-0.93,2.11-1.415l10.63-7.391
		l0,0c0.839-0.583,1.646-1.196,2.435-1.829c0.284-0.228,0.556-0.468,0.833-0.703c0.483-0.407,0.962-0.818,1.425-1.244
		c0.342-0.316,0.676-0.637,1.008-0.963c0.355-0.348,0.704-0.7,1.047-1.059c0.382-0.401,0.76-0.802,1.125-1.215
		c0.225-0.254,0.442-0.514,0.661-0.772C423.151,548.435,426.895,538.161,426.875,527.531z"/>
</g>
</svg>
